<?xml version="1.0" standalone="no"?><svg data-noselect="" 
  viewBox="96.33313579102003 16.002944946289006 638 478.851413726811" 
  width="638" 
  height="478.851413726811" 
  ref="svg_canvas" 
  preserveAspectRatio="none" 
  version="1.1" xmlns="http://www.w3.org/2000/svg" 
  style="background: #ffffff;">
    <defs></defs>
    <g id="shape_HMUyFAB88C" class="brand_name"  ref="shape_HMUyFAB88C" key="shape_HMUyFAB88C" transform="translate(239.34313579102002,164.6410386731) rotate(0,212.9702,231.28760935735102) scale(1,1)" style="cursor:move;display:inline;opacity:1;" filter="">
            <g style="display:inline"><svg xmlns="http://www.w3.org/2000/svg" version="1.1" xmlns:xlink="http://www.w3.org/1999/xlink" width="476.96000000000004" height="438.42664" viewBox="0 0 476.96000000000004 438.42664" preserveAspectRatio="none" data-parent="shape_HMUyFAB88C"><rect fill="rgba(0,0,0,0)" width="227" height="62" x="62.49" y="188.21332"></rect><g data-width="226.53337798859337" transform="translate(67.22331100570332, 0)"><path d="M39.68-35.81L39.68 7.19L34.74 7.19L34.74-30.87L34.43-30.87L24.56-5.25L20.18-5.25L10.37-30.87L10.00-30.87L10.00 7.19L5.12 7.19L5.12-30.87L3.75-30.87L3.75-35.81L13.75-35.81L22.37-13.19L31.06-35.81L39.68-35.81Z" transform="translate(0 229.21332) " fill="rgb(25, 25, 25)" stroke="rgb(25, 25, 25)" stroke-width="0.104" data-glyph-w="53.80531559771868" data-glyph-h="62.302530000000004" data-glyph-ascender="41.743320000000004" data-glyph-descender="-20.55921"></path><path d="M11.87 7.00L11.87 7.00L6.94 7.00L6.94-35.68L11.87-35.68L11.87 7.00Z" transform="translate(53.80531559771868 229.21332) " fill="rgb(25, 25, 25)" stroke="rgb(25, 25, 25)" stroke-width="0.104" data-glyph-w="27.55951559771868" data-glyph-h="62.302530000000004" data-glyph-ascender="41.743320000000004" data-glyph-descender="-20.55921"></path><path d="M22.31 6.25L22.31 6.25Q18.56 6.25 15.25 4.59Q11.94 2.94 9.47 0.03Q7.00-2.87 5.56-6.72Q4.12-10.56 4.12-15.00L4.12-15.00Q4.12-19.37 5.56-23.25Q7.00-27.12 9.47-30.00Q11.94-32.87 15.25-34.56Q18.56-36.24 22.31-36.24L22.31-36.24Q26.62-36.24 30.40-34.06Q34.18-31.87 36.81-27.81L36.81-27.81L32.68-25.12Q30.81-28.12 28.09-29.71Q25.37-31.31 22.31-31.31L22.31-31.31Q19.56-31.31 17.15-30.03Q14.75-28.75 12.94-26.53Q11.12-24.31 10.06-21.34Q9.00-18.37 9.00-15.00L9.00-15.00Q9.00-11.62 10.06-8.65Q11.12-5.69 12.94-3.44Q14.75-1.19 17.15 0.09Q19.56 1.37 22.31 1.37L22.31 1.37Q25.37 1.37 28.09-0.25Q30.81-1.87 32.68-4.87L32.68-4.87L36.81-2.19Q34.18 1.87 30.40 4.06Q26.62 6.25 22.31 6.25Z" transform="translate(81.36483119543736 229.21332) " fill="rgb(25, 25, 25)" stroke="rgb(25, 25, 25)" stroke-width="0.104" data-glyph-w="49.68097559771868" data-glyph-h="62.302530000000004" data-glyph-ascender="41.743320000000004" data-glyph-descender="-20.55921"></path><path d="M9.62-33.31L9.62 6.94L4.69 6.94L4.69-33.31L9.62-33.31ZM32.24 4.19L28.18 6.94L14.19-13.69L14.19-17.00L19.56-17.00Q21.25-17.00 22.75-17.56Q24.25-18.12 25.34-19.09Q26.43-20.06 27.09-21.34Q27.75-22.62 27.75-24.12L27.75-24.12Q27.75-25.56 27.09-26.84Q26.43-28.12 25.34-29.09Q24.25-30.06 22.75-30.62Q21.25-31.18 19.56-31.18L19.56-31.18L3.06-31.18L3.06-36.06L19.56-36.06Q22.25-36.06 24.62-35.12Q27.00-34.18 28.78-32.56Q30.56-30.93 31.59-28.75Q32.62-26.56 32.62-24.12L32.62-24.12Q32.62-21.81 31.74-19.78Q30.87-17.75 29.31-16.15Q27.75-14.56 25.68-13.50Q23.62-12.44 21.18-12.19L21.18-12.19L32.24 4.19Z" transform="translate(131.04580679315603 229.21332) " fill="rgb(25, 25, 25)" stroke="rgb(25, 25, 25)" stroke-width="0.104" data-glyph-w="45.05671559771868" data-glyph-h="62.302530000000004" data-glyph-ascender="41.743320000000004" data-glyph-descender="-20.55921"></path><path d="M20.43 6.44L20.43 6.44Q16.87 6.44 13.72 4.78Q10.56 3.12 8.12-0.06L8.12-0.06Q5.81-3.06 4.59-6.84Q3.37-10.62 3.37-14.81L3.37-14.81Q3.37-19.00 4.59-22.81Q5.81-26.62 8.12-29.62L8.12-29.62Q10.56-32.81 13.72-34.46Q16.87-36.12 20.43-36.12L20.43-36.12Q23.93-36.12 27.09-34.46Q30.25-32.81 32.68-29.62L32.68-29.62Q34.99-26.62 36.21-22.81Q37.43-19.00 37.43-14.81L37.43-14.81Q37.43-10.62 36.21-6.84Q34.99-3.06 32.68-0.06L32.68-0.06Q30.25 3.12 27.09 4.78Q23.93 6.44 20.43 6.44ZM20.43-31.18L20.43-31.18Q17.93-31.18 15.72-29.90Q13.50-28.62 11.84-26.40Q10.19-24.18 9.22-21.18Q8.25-18.18 8.25-14.81L8.25-14.81Q8.25-11.44 9.22-8.47Q10.19-5.50 11.84-3.28Q13.50-1.06 15.72 0.22Q17.93 1.50 20.43 1.50L20.43 1.50Q22.93 1.50 25.15 0.22Q27.37-1.06 29.00-3.28Q30.62-5.50 31.59-8.47Q32.56-11.44 32.56-14.81L32.56-14.81Q32.56-18.18 31.59-21.18Q30.62-24.18 29.00-26.40Q27.37-28.62 25.15-29.90Q22.93-31.18 20.43-31.18Z" transform="translate(176.1025223908747 229.21332) " fill="rgb(25, 25, 25)" stroke="rgb(25, 25, 25)" stroke-width="0.104" data-glyph-w="50.43085559771868" data-glyph-h="62.302530000000004" data-glyph-ascender="41.743320000000004" data-glyph-descender="-20.55921"></path></g></svg></g>
        </g><g id="shape_zlI22JV3ru" class=""  ref="shape_zlI22JV3ru" key="shape_zlI22JV3ru" transform="translate(306.33316040039,122.50296020508) rotate(0,104,104) scale(1,1)" style="cursor:move;display:inline;opacity:1;" filter="">
            <g style="display:inline"><rect fill="rgba(0,0,0,0)" width="228" height="228" x="-10" y="-10"></rect><svg version="1.1" xmlns="http://www.w3.org/2000/svg" xmlns:xlink="http://www.w3.org/1999/xlink" x="0px" y="0px" shapetype="round rect" width="208" height="208" viewBox="0 0 100 100" enable-background="new 0 0 100 100" xml:space="preserve" class="style-removed" preserveAspectRatio="none" data-parent="shape_zlI22JV3ru">
	 <linearGradient class="linearGradient" x1="0%" y1="0%" x2="0%" y2="100%" gradientTransform="translate(0.5,0.5) rotate(0) translate(-0.5,-0.5)">
		<stop id="stop1_eKcJivWHgZ" offset="0%" class="linearGradientColor1" stop-color="#05a"></stop>
		<stop id="stop2_R6DoHVw1dg" offset="100%" class="linearGradientColor2" stop-color="#0a5"></stop>
	</linearGradient>

	<radialGradient class="radialGradient" cx="50%" cy="50%" r="50%" fx="50%" fy="50%">
		<stop offset="0%" class="radialGradientColor1" stop-color="#05a"></stop>
		<stop offset="100%" class="radialGradientColor2" stop-color="#0a5"></stop>
	</radialGradient>
	<clipPath id="f_round_rect_GM9uMKcv7U" class="clipPath">
		<rect fill="none" class="element" stroke="#dddddd" stroke-width="1" stroke-miterlimit="10" x="0" y="0" width="100" height="100" rx="20" ry="20" data-ignorecolor=""></rect>
	</clipPath>
	<rect class="fill-color element" fill="#ff8038" opacity="1" x="1" y="1" width="98" height="98" rx="20" ry="20" stroke-width="0"></rect>
	<rect class="stroke-color element" fill="none" stroke="#dddddd" stroke-width="0" stroke-miterlimit="10" x="0" y="0" width="100" height="100" rx="20" ry="20" clip-path="url(#f_round_rect_GM9uMKcv7U)"></rect>
</svg></g>
        </g><g id="shape_agfP22XA4d" class="brand_first"  ref="shape_agfP22XA4d" key="shape_agfP22XA4d" transform="translate(70.90313421431,-602.7870550537109) rotate(0,402.84452459517,838.16032099266) scale(1,1)" style="cursor:move;display:inline;opacity:1;" filter="">
            <g style="display:inline"><svg xmlns="http://www.w3.org/2000/svg" version="1.1" xmlns:xlink="http://www.w3.org/1999/xlink" width="1144.72" height="1676.58" viewBox="0 0 1144.72 1676.58" preserveAspectRatio="none" data-parent="shape_agfP22XA4d"><rect fill="rgba(0,0,0,0)" width="213" height="279" x="232.93" y="698.79"></rect><g data-width="212.43216" transform="translate(233.21392, 0)"><path d="M186.58-126.71L186.58-127.41Q184.25-126.25 182.50-124.50Q180.75-122.75 178.89-121.12L178.89-121.12Q177.96-120.66 177.38-120.08Q176.79-119.49 175.86-118.79L175.86-118.79Q174.70-118.33 173.88-117.05Q173.07-115.77 171.90-114.83L171.90-114.83Q171.44-114.37 171.09-114.49Q170.74-114.60 170.27-114.37L170.27-114.37Q169.34-113.20 168.06-111.57Q166.78-109.94 165.15-109.01L165.15-109.01Q164.68-109.01 164.91-108.89Q165.15-108.78 164.68-108.78L164.68-108.78L164.45-108.78Q162.59-106.91 160.95-105.05Q159.32-103.19 157.46-101.56L157.46-101.56Q153.50-97.13 148.96-93.17Q144.42-89.21 140.46-84.55L140.46-84.55Q139.76-83.62 139.06-82.81Q138.36-81.99 137.66-80.83L137.66-80.83Q136.50-79.89 135.68-79.08Q134.87-78.26 133.93-77.33L133.93-77.33Q133.00-76.40 132.42-75.59Q131.84-74.77 130.91-73.84L130.91-73.84Q130.21-73.14 129.63-72.44Q129.04-71.74 128.34-70.81L128.34-70.81Q128.34-70.58 128.11-70.69Q127.88-70.81 127.88-70.34L127.88-70.34Q127.88-69.41 126.48-68.60Q125.08-67.78 124.85-66.62L124.85-66.62Q124.85-66.15 124.15-65.80Q123.45-65.45 122.99-64.75L122.99-64.75Q122.52-64.29 122.64-64.06Q122.75-63.82 122.29-63.36L122.29-63.36Q122.06-62.89 121.71-62.89Q121.36-62.89 121.36-62.66L121.36-62.66Q121.12-62.43 121.12-62.08Q121.12-61.73 120.89-61.26L120.89-61.26Q120.66-61.03 119.73-60.56Q118.79-60.10 118.79-59.16L118.79-59.16Q118.79-58.70 117.98-58.23Q117.16-57.77 116.70-57.07L116.70-57.07Q116.23-56.83 116.35-56.49Q116.47-56.14 116.23-55.67L116.23-55.67Q116.23-55.44 115.88-55.44Q115.53-55.44 115.30-55.20L115.30-55.20Q115.07-54.74 115.07-54.39Q115.07-54.04 114.83-53.57L114.83-53.57Q114.60-53.34 114.25-53.34Q113.90-53.34 113.90-53.11L113.90-53.11L113.90-51.94Q112.97-51.48 112.51-50.90Q112.04-50.31 111.34-49.38L111.34-49.38Q111.11-48.92 110.76-48.68Q110.41-48.45 110.18-47.98L110.18-47.98Q110.18-47.98 109.71-47.05L109.71-47.05Q109.48-46.82 109.24-46.70Q109.01-46.59 108.78-46.12L108.78-46.12Q108.31-45.19 108.31-45.19L108.31-45.19Q107.61-44.26 107.15-43.79Q106.68-43.32 106.22-42.16L106.22-42.16Q105.98-41.93 105.87-42.04Q105.75-42.16 105.75-41.69L105.75-41.69Q105.75-41.23 105.28-40.76Q104.82-40.30 104.59-39.83L104.59-39.83Q104.35-39.60 104.35-39.48Q104.35-39.37 104.12-39.13L104.12-39.13Q104.12-38.67 103.77-38.55Q103.42-38.43 103.19-37.97L103.19-37.97L103.19-37.50L103.19-37.27L102.72-37.27Q101.79-35.87 101.79-34.94L101.79-34.94Q101.56-34.71 101.21-34.59Q100.86-34.47 100.63-34.01L100.63-34.01Q100.39-33.77 100.63-33.43Q100.86-33.08 100.63-32.84L100.63-32.84Q100.16-32.84 100.16-32.84L100.16-32.84Q99.46-31.45 98.53-29.93Q97.60-28.42 96.67-26.55L96.67-26.55Q96.43-26.09 95.50-25.16L95.50-25.16L95.50-24.69L95.50-24.46Q95.04-24.22 94.80-23.41Q94.57-22.59 94.10-21.90L94.10-21.90Q93.87-21.43 93.17-20.61Q92.47-19.80 92.47-18.87L92.47-18.87Q92.47-18.17 92.01-17.24L92.01-17.24Q92.01-17.00 91.54-16.77Q91.08-16.54 91.08-16.31L91.08-16.31L91.08-15.37Q89.91-14.67 89.21-12.35Q88.51-10.02 87.35-8.15L87.35-8.15Q86.42-8.85 86.88-9.78Q87.35-10.71 87.35-11.41L87.35-11.41Q88.28-13.74 88.51-14.91L88.51-14.91Q88.75-15.84 89.21-17.00Q89.68-18.17 89.91-19.33L89.91-19.33Q89.21-18.17 88.63-17.12Q88.05-16.07 87.35-14.91L87.35-14.91L87.35-14.44Q86.88-13.74 86.88-13.28Q86.88-12.81 86.65-12.35L86.65-12.35Q86.18-11.41 85.49-11.41L85.49-11.41Q85.25-10.95 85.49-10.60Q85.72-10.25 85.49-9.78L85.49-9.78Q85.49-9.55 85.02-9.32Q84.55-9.08 84.55-8.85L84.55-8.85Q84.32-7.92 84.44-7.45Q84.55-6.99 84.09-5.82L84.09-5.82Q83.85-5.59 83.74-5.71Q83.62-5.82 83.39-5.36L83.39-5.36Q83.39-4.19 82.69-2.68Q81.99-1.16 80.36-1.16L80.36-1.16Q80.36-1.63 81.18-2.21Q81.99-2.80 80.83-3.26L80.83-3.26Q80.36-3.26 80.36-4.19Q80.36-5.12 79.66-4.66L79.66-4.66Q78.73-4.89 78.38-4.31Q78.03-3.73 78.03-3.03Q78.03-2.33 78.03-1.75Q78.03-1.16 77.80-1.16L77.80-1.16Q76.63-0.93 75.70-1.16Q74.77-1.40 73.37-1.63L73.37-1.63Q72.21-2.10 70.93-2.10Q69.65-2.10 68.71-2.56L68.71-2.56Q68.48-2.80 68.48-3.03L68.48-3.03L68.48-3.26Q68.02-3.49 67.67-3.49Q67.32-3.49 67.08-3.73L67.08-3.73Q66.15-4.19 66.04-4.78Q65.92-5.36 65.45-5.82L65.45-5.82Q64.29-6.29 63.36-6.29Q62.43-6.29 61.26-6.52L61.26-6.52Q61.03-6.75 61.14-7.10Q61.26-7.45 60.79-7.45L60.79-7.45Q59.63-7.45 58.58-9.08Q57.53-10.71 56.83-11.88L56.83-11.88Q56.60-12.11 56.25-12.35Q55.90-12.58 55.67-13.04L55.67-13.04Q55.44-13.28 55.55-13.63Q55.67-13.98 55.20-14.44L55.20-14.44Q54.97-15.14 54.62-15.61Q54.27-16.07 54.04-17.00L54.04-17.00Q53.57-16.77 53.57-16.07Q53.57-15.37 54.04-15.37L54.04-15.37Q53.81-14.91 53.81-15.14Q53.81-15.37 53.34-15.37L53.34-15.37Q50.78-21.66 49.50-29.82Q48.22-37.97 48.10-46.82Q47.98-55.67 48.57-64.52Q49.15-73.37 50.31-80.83L50.31-80.83Q50.08-81.29 49.73-81.18Q49.38-81.06 49.15-80.59L49.15-80.59Q48.68-79.89 48.45-79.08Q48.22-78.26 47.75-77.33L47.75-77.33Q47.52-77.10 47.63-76.75Q47.75-76.40 47.75-76.17L47.75-76.17Q47.28-75.94 47.28-75.59Q47.28-75.24 47.28-73.37L47.28-73.37Q47.05-72.21 46.94-70.93Q46.82-69.65 46.59-67.78L46.59-67.78Q46.59-66.39 46.35-64.29Q46.12-62.19 46.12-60.33L46.12-60.33Q46.12-59.40 46.00-58.81Q45.89-58.23 45.89-57.77L45.89-57.77Q45.42-53.81 45.42-48.45Q45.42-43.09 45.89-38.43L45.89-38.43Q45.89-37.73 46.00-37.39Q46.12-37.04 46.12-35.87L46.12-35.87Q46.59-31.91 46.70-27.95Q46.82-23.99 47.75-20.26L47.75-20.26Q47.98-19.57 47.98-19.33Q47.98-19.10 48.45-17.94L48.45-17.94Q48.45-17.47 49.03-15.84Q49.61-14.21 49.85-13.28L49.85-13.28Q49.85-12.35 49.85-12.35L49.85-12.35Q49.85-11.88 50.31-11.76Q50.78-11.65 50.78-11.41L50.78-11.41Q51.01-10.48 51.24-9.78L51.24-9.78Q51.71-8.62 52.99-7.22Q54.27-5.82 56.14-5.36L56.14-5.36Q56.60-5.12 58.23-5.12Q59.86-5.12 59.86-3.73L59.86-3.73Q58.47-3.26 56.83-3.96Q55.20-4.66 54.04-4.66L54.04-4.66Q53.57-4.89 53.57-5.24Q53.57-5.59 53.34-5.82L53.34-5.82Q53.11-5.82 52.88-5.71Q52.64-5.59 52.18-5.82L52.18-5.82Q51.71-6.06 51.48-6.87Q51.24-7.69 50.78-8.15L50.78-8.15Q50.55-8.62 50.20-8.85Q49.85-9.08 49.85-9.32L49.85-9.32Q49.38-10.02 49.26-10.60Q49.15-11.18 48.45-12.35L48.45-12.35Q48.45-12.58 48.10-12.81Q47.75-13.04 47.75-13.28L47.75-13.28Q47.28-14.21 47.40-15.02Q47.52-15.84 47.28-17.00L47.28-17.00L47.05-17.00Q46.82-17.00 46.59-17.24L46.59-17.24Q46.12-19.10 45.89-21.78Q45.65-24.46 45.19-27.02L45.19-27.02Q44.72-28.88 44.72-30.98Q44.72-33.08 44.49-35.64L44.49-35.64Q44.49-37.50 44.14-40.76Q43.79-44.02 44.26-46.59L44.26-46.59Q44.49-48.68 44.49-51.48Q44.49-54.27 44.49-57.07L44.49-57.07Q44.72-58.47 44.96-59.86Q45.19-61.26 45.19-62.43L45.19-62.43Q45.19-64.99 44.96-68.25Q44.72-71.51 45.89-74.30L45.89-74.30Q45.42-75.47 45.07-74.54Q44.72-73.61 44.26-73.84L44.26-73.84Q43.79-72.67 43.09-71.51Q42.39-70.34 41.69-69.18L41.69-69.18Q41.46-68.95 41.35-69.06Q41.23-69.18 41.23-68.71L41.23-68.71Q41.23-68.25 40.76-68.25Q40.30-68.25 40.30-67.78L40.30-67.78Q40.06-67.78 40.18-67.32Q40.30-66.85 40.30-66.62L40.30-66.62Q39.13-66.15 38.67-65.22L38.67-65.22Q38.43-64.99 38.20-64.06L38.20-64.06Q37.73-63.59 36.92-62.54Q36.10-61.49 35.64-60.79L35.64-60.79Q34.71-59.86 34.71-59.16L34.71-59.16Q34.47-58.47 33.77-58.47L33.77-58.47Q33.54-58.00 33.77-57.65Q34.01-57.30 33.77-57.07L33.77-57.07Q33.31-56.60 32.84-56.37Q32.38-56.14 31.91-55.67L31.91-55.67Q31.68-55.44 31.68-55.20Q31.68-54.97 31.45-54.51L31.45-54.51Q31.45-54.27 30.75-53.81Q30.05-53.34 29.82-52.64L29.82-52.64Q29.82-52.18 29.47-52.06Q29.12-51.94 29.12-51.71L29.12-51.71Q28.88-51.48 29.00-51.13Q29.12-50.78 29.12-50.55L29.12-50.55Q28.42-50.55 27.95-50.08L27.95-50.08Q27.95-49.85 28.18-49.61Q28.42-49.38 27.95-49.38L27.95-49.38Q27.95-49.15 27.49-49.03Q27.02-48.92 27.02-48.68L27.02-48.68Q26.79-48.45 27.02-48.10Q27.25-47.75 27.02-47.52L27.02-47.52L25.62-46.12Q25.39-45.65 24.92-45.19L24.92-45.19Q24.46-44.72 24.46-44.49L24.46-44.49Q23.99-43.79 23.53-42.86Q23.06-41.93 22.36-41.23L22.36-41.23Q22.13-40.76 22.01-40.76Q21.90-40.76 21.66-40.53L21.66-40.53Q21.66-40.53 21.66-40.06L21.66-40.06L21.66-39.60L20.96-39.60Q20.73-39.37 20.96-39.02Q21.20-38.67 20.96-38.43L20.96-38.43Q20.50-37.97 20.15-37.85Q19.80-37.73 19.33-37.27L19.33-37.27Q19.33-36.57 18.40-35.64L18.40-35.64L17.00-32.84Q16.77-32.61 16.54-32.61L16.54-32.61Q16.31-32.61 16.07-32.38L16.07-32.38Q16.07-32.38 16.07-31.68L16.07-31.68Q15.61-31.21 15.14-30.98Q14.67-30.75 14.44-30.51L14.44-30.51Q14.21-30.28 14.33-29.93Q14.44-29.58 14.44-29.35L14.44-29.35Q14.21-29.35 13.39-28.77Q12.58-28.18 12.35-27.49L12.35-27.49Q12.35-26.79 10.71-25.51Q9.08-24.22 8.39-23.29L8.39-23.29Q7.22-23.99 8.39-24.57Q9.55-25.16 10.02-25.16L10.02-25.16Q8.85-26.32 7.69-26.20Q6.52-26.09 5.36-26.55L5.36-26.55Q5.12-26.55 5.24-26.67Q5.36-26.79 4.89-27.02L4.89-27.02Q4.43-27.02 3.84-27.60Q3.26-28.18 2.33-28.42L2.33-28.42Q1.40-29.58 2.80-30.98L2.80-30.98Q2.56-31.91 1.86-32.14Q1.16-32.38 1.40-33.54L1.40-33.54Q0.93-34.01 0.47-33.43Q0-32.84-0.47-32.14Q-0.93-31.45-1.40-31.10Q-1.86-30.75-2.56-31.68L-2.56-31.68Q-3.26-32.38-3.26-32.38L-3.26-32.38Q-3.26-32.84-3.03-32.96Q-2.80-33.08-2.56-33.54L-2.56-33.54L-1.86-35.64Q-1.40-36.10-1.05-36.34Q-0.70-36.57-0.23-37.27L-0.23-37.27Q-0.23-37.27 0.23-37.97L0.23-37.97Q0.70-38.43 1.05-39.13Q1.40-39.83 1.86-40.53L1.86-40.53Q2.10-40.76 2.21-40.76Q2.33-40.76 2.33-41.23L2.33-41.23Q2.56-41.46 2.56-41.69L2.56-41.69Q2.56-42.39 2.80-42.39L2.80-42.39Q3.03-42.86 3.61-43.32Q4.19-43.79 4.43-44.02L4.43-44.02Q4.66-44.26 4.43-44.61Q4.19-44.96 4.43-45.19L4.43-45.19Q4.89-45.19 5.36-45.65L5.36-45.65Q5.59-45.65 5.36-46.12Q5.12-46.59 5.36-46.59L5.36-46.59Q5.82-47.05 6.29-47.75Q6.75-48.45 7.22-49.38L7.22-49.38Q7.45-49.85 7.57-49.73Q7.69-49.61 7.69-50.08L7.69-50.08Q7.69-50.55 8.15-50.66Q8.62-50.78 8.85-51.24L8.85-51.24Q9.32-51.71 9.20-52.18Q9.08-52.64 9.32-53.11L9.32-53.11Q9.78-54.04 10.95-54.51L10.95-54.51Q11.41-55.20 11.53-55.67Q11.65-56.14 12.11-56.60L12.11-56.60Q12.11-57.07 12.23-56.83Q12.35-56.60 12.35-57.07L12.35-57.07Q12.58-57.30 12.58-57.77L12.58-57.77Q12.58-58.47 12.81-58.70L12.81-58.70L13.04-58.70Q13.28-58.70 13.28-58.81Q13.28-58.93 13.51-58.93L13.51-58.93Q13.74-58.93 13.98-59.16L13.98-59.16Q13.98-59.40 13.86-59.63Q13.74-59.86 13.98-60.33L13.98-60.33Q14.21-60.79 14.67-61.03Q15.14-61.26 15.37-61.73L15.37-61.73Q15.84-62.19 15.96-62.77Q16.07-63.36 16.54-63.82L16.54-63.82L17.94-65.22Q17.94-65.45 17.82-65.92Q17.70-66.39 17.94-66.39L17.94-66.39L18.40-66.39Q19.10-66.39 19.10-66.62L19.10-66.62Q19.33-66.85 19.10-67.32Q18.87-67.78 19.10-67.78L19.10-67.78L19.33-67.78L19.33-68.71L20.03-68.71Q20.26-69.18 20.50-69.76Q20.73-70.34 20.96-70.81L20.96-70.81L22.36-72.21Q22.59-72.67 22.36-72.91Q22.13-73.14 22.36-73.37L22.36-73.37Q23.06-73.37 23.53-73.84L23.53-73.84Q23.53-74.77 23.53-74.77L23.53-74.77Q23.99-75.47 24.22-75.82Q24.46-76.17 24.92-77.10L24.92-77.10Q25.62-77.10 25.62-77.33L25.62-77.33Q25.62-78.03 25.62-78.03L25.62-78.03Q26.09-78.50 26.32-78.73Q26.55-78.96 27.02-79.43L27.02-79.43Q27.25-79.66 27.25-79.89Q27.25-80.13 27.49-80.59L27.49-80.59Q27.95-81.06 28.65-82.22Q29.35-83.39 29.82-84.55L29.82-84.55Q30.28-85.02 30.86-85.25Q31.45-85.49 31.45-85.95L31.45-85.95L31.45-86.42L31.45-86.88Q31.68-87.12 32.14-87.23Q32.61-87.35 32.61-87.58L32.61-87.58Q32.84-88.05 33.08-88.51Q33.31-88.98 33.77-89.45L33.77-89.45Q34.01-90.38 35.17-90.84L35.17-90.84Q35.17-91.08 35.06-91.43Q34.94-91.77 35.17-92.01L35.17-92.01Q35.64-92.47 36.10-92.94Q36.57-93.40 37.04-94.34L37.04-94.34Q37.50-95.04 37.85-95.27Q38.20-95.50 38.67-95.97L38.67-95.97Q38.67-96.20 38.55-96.67Q38.43-97.13 38.67-97.13L38.67-97.13Q39.13-97.36 39.13-97.48Q39.13-97.60 39.60-98.06L39.60-98.06Q40.06-98.53 40.41-98.88Q40.76-99.23 41.23-99.69L41.23-99.69L41.23-99.93Q41.23-100.39 41.23-100.39L41.23-100.39Q41.23-100.86 41.58-100.86Q41.93-100.86 42.16-101.09L42.16-101.09L42.16-101.56Q42.16-102.26 42.16-102.26L42.16-102.26Q42.86-102.72 43.32-103.19L43.32-103.19Q43.56-103.65 43.91-103.89Q44.26-104.12 44.49-104.82L44.49-104.82Q44.49-104.82 44.49-105.52L44.49-105.52Q45.19-106.22 45.65-106.68Q46.12-107.15 46.59-108.08L46.59-108.08Q47.05-108.55 47.52-108.89Q47.98-109.24 48.45-109.71L48.45-109.71Q48.45-110.18 48.57-110.76Q48.68-111.34 49.15-111.81L49.15-111.81Q49.61-112.27 49.96-112.39Q50.31-112.51 50.78-112.97L50.78-112.97Q51.01-113.44 51.01-113.67Q51.01-113.90 51.24-114.37L51.24-114.37Q51.94-115.07 52.64-116.93L52.64-116.93Q53.81-117.40 54.04-118.33L54.04-118.33Q55.20-118.79 55.20-119.73L55.20-119.73Q55.44-120.19 55.79-120.31Q56.14-120.42 56.14-120.89L56.14-120.89Q56.14-120.89 56.14-121.82L56.14-121.82Q56.60-122.29 57.07-122.52Q57.53-122.75 58.00-123.22L58.00-123.22Q58.23-123.92 58.58-124.04Q58.93-124.15 59.16-124.62L59.16-124.62Q59.40-124.85 59.28-125.20Q59.16-125.55 59.16-125.78L59.16-125.78Q60.10-126.48 61.26-128.34L61.26-128.34Q61.73-128.81 62.08-129.04Q62.43-129.28 62.89-129.74L62.89-129.74Q62.89-129.97 62.77-130.32Q62.66-130.67 62.89-130.91L62.89-130.91Q63.59-131.61 64.64-132.65Q65.69-133.70 66.39-134.87L66.39-134.87Q67.32-135.80 67.32-136.50L67.32-136.50Q67.32-136.96 67.78-136.96Q68.25-136.96 68.48-137.43L68.48-137.43Q68.71-137.89 68.60-138.48Q68.48-139.06 68.71-139.53L68.71-139.53Q69.41-139.53 69.41-139.76L69.41-139.76Q69.41-140.92 70.34-141.85L70.34-141.85Q70.11-143.02 69.76-142.09Q69.41-141.16 68.71-141.39L68.71-141.39Q68.95-140.69 68.60-140.34Q68.25-139.99 67.78-139.53L67.78-139.53Q67.32-138.83 66.39-137.89L66.39-137.89Q66.15-137.66 66.39-137.31Q66.62-136.96 66.39-136.96L66.39-136.96Q65.69-136.50 65.45-135.80L65.45-135.80L63.82-134.17Q63.12-133.24 62.54-132.42Q61.96-131.61 61.26-130.91L61.26-130.91Q60.79-130.21 59.86-129.28L59.86-129.28Q59.63-129.04 59.86-128.81Q60.10-128.58 59.86-128.34L59.86-128.34Q59.63-128.11 59.28-128.00Q58.93-127.88 58.93-127.65L58.93-127.65Q58.93-127.65 58.93-126.71L58.93-126.71Q58.23-126.48 58.00-125.78L58.00-125.78Q57.53-125.32 57.07-125.08Q56.60-124.85 56.14-124.38L56.14-124.38Q55.67-122.99 55.20-122.29L55.20-122.29Q55.20-122.06 54.74-122.06Q54.27-122.06 54.04-121.82L54.04-121.82Q54.04-121.59 54.27-121.36Q54.51-121.12 54.04-120.89L54.04-120.89Q53.81-119.96 52.64-119.26L52.64-119.26Q52.64-118.79 52.18-118.44Q51.71-118.10 51.71-117.63L51.71-117.63Q51.71-117.16 50.66-116.00Q49.61-114.83 49.15-114.37L49.15-114.37Q48.92-113.90 48.68-113.55Q48.45-113.20 48.45-112.74L48.45-112.74Q48.22-112.27 47.40-111.22Q46.59-110.18 46.12-109.71L46.12-109.71Q46.12-109.48 46.00-109.59Q45.89-109.71 45.89-109.01L45.89-109.01L45.89-108.78Q45.42-108.31 44.96-107.96Q44.49-107.61 44.26-107.38L44.26-107.38Q43.32-105.98 43.32-105.52L43.32-105.52L43.32-105.05Q42.16-104.35 41.69-103.65L41.69-103.65Q41.00-102.72 40.65-101.79Q40.30-100.86 39.60-100.16L39.60-100.16Q39.13-99.69 38.78-99.23Q38.43-98.76 38.20-98.30L38.20-98.30Q37.73-97.83 37.62-97.36Q37.50-96.90 37.04-96.43L37.04-96.43Q36.57-95.97 36.34-95.73Q36.10-95.50 35.64-95.04L35.64-95.04Q35.17-94.80 35.17-94.10L35.17-94.10Q34.94-93.64 34.47-92.94Q34.01-92.24 33.77-91.54L33.77-91.54Q33.31-91.08 32.84-90.84Q32.38-90.61 31.91-90.14L31.91-90.14Q31.91-89.91 32.14-89.45Q32.38-88.98 31.91-88.98L31.91-88.98Q31.45-88.51 30.98-88.28Q30.51-88.05 30.51-87.58L30.51-87.58Q30.51-87.35 30.28-86.88Q30.05-86.42 29.82-86.42L29.82-86.42Q29.82-85.95 29.47-85.72Q29.12-85.49 28.65-85.02L28.65-85.02L28.65-83.85Q27.95-83.39 27.72-83.16Q27.49-82.92 27.02-81.99L27.02-81.99Q26.79-81.53 26.67-81.64Q26.55-81.76 26.55-81.29L26.55-81.29L26.55-80.83Q26.32-80.59 25.86-80.24Q25.39-79.89 24.92-79.43L24.92-79.43Q24.46-78.96 24.46-78.50Q24.46-78.03 23.99-77.33L23.99-77.33Q23.99-77.10 23.76-77.33Q23.53-77.57 23.53-77.10L23.53-77.10Q23.53-76.40 23.06-76.28Q22.59-76.17 22.36-75.94L22.36-75.94L22.36-75.47L22.36-74.77L21.90-74.77L21.90-73.84Q21.66-73.37 21.55-73.37Q21.43-73.37 20.96-72.91L20.96-72.91Q18.87-69.65 16.31-65.69Q13.74-61.73 11.41-58.47L11.41-58.47Q9.08-54.51 6.75-50.90Q4.43-47.28 2.33-43.79L2.33-43.79Q1.16-41.93 0-40.06Q-1.16-38.20-2.33-36.57L-2.33-36.57Q-3.49-34.71-4.78-33.08Q-6.06-31.45-6.75-29.35L-6.75-29.35Q-7.22-29.35-7.22-30.86Q-7.22-32.38-6.75-31.91L-6.75-31.91Q-6.29-33.77-4.66-36.57L-4.66-36.57Q-4.66-37.04-3.73-37.50L-3.73-37.50Q-3.49-37.50-3.73-37.97Q-3.96-38.43-3.73-38.43L-3.73-38.43L-3.26-38.43L-3.26-39.60L-2.56-39.60L-2.56-40.06Q-2.56-40.53-2.56-40.53L-2.56-40.53Q-2.33-40.76-1.98-41.58Q-1.63-42.39-1.16-43.09L-1.16-43.09Q-0.93-43.32-0.82-43.32Q-0.70-43.32-0.70-43.79L-0.70-43.79Q-0.70-44.26-0.47-44.49L-0.47-44.49Q-0.47-44.72-0.35-44.84Q-0.23-44.96-0.23-45.19L-0.23-45.19Q0-45.42 0.35-45.54Q0.70-45.65 0.70-46.12L0.70-46.12Q1.16-46.59 1.51-47.40Q1.86-48.22 2.33-49.38L2.33-49.38Q2.56-49.38 2.80-49.61L2.80-49.61Q3.26-50.08 3.26-50.08L3.26-50.08L3.26-51.24L3.49-51.24Q3.49-51.24 3.73-51.24L3.73-51.24L3.73-51.71L3.73-51.94Q4.66-52.88 5.59-54.39Q6.52-55.90 7.22-57.07L7.22-57.07Q10.25-61.49 12.35-65.22L12.35-65.22Q14.91-69.41 17.47-73.37Q20.03-77.33 22.36-81.29L22.36-81.29Q22.59-81.76 22.94-81.99Q23.29-82.22 23.53-82.46L23.53-82.46Q23.53-83.39 23.53-83.39L23.53-83.39L23.99-83.39Q24.22-83.85 24.34-84.44Q24.46-85.02 24.92-85.49L24.92-85.49Q25.16-85.72 25.51-85.95Q25.86-86.18 26.09-86.42L26.09-86.42Q26.55-86.88 26.55-87.47Q26.55-88.05 27.02-88.51L27.02-88.51Q27.25-88.75 27.37-88.63Q27.49-88.51 27.49-88.98L27.49-88.98Q27.49-89.45 27.95-89.79Q28.42-90.14 28.65-90.61L28.65-90.61Q28.88-90.84 29.00-91.43Q29.12-92.01 29.58-92.71L29.58-92.71Q29.82-92.94 29.82-92.71Q29.82-92.47 29.82-92.94L29.82-92.94Q29.82-93.40 30.40-93.75Q30.98-94.10 31.21-94.34L31.21-94.34Q31.21-94.57 31.33-94.69Q31.45-94.80 31.45-95.04L31.45-95.04L31.45-95.50Q31.91-95.97 32.26-96.32Q32.61-96.67 33.08-97.13L33.08-97.13Q33.54-97.60 33.43-97.83Q33.31-98.06 33.77-98.30L33.77-98.30Q34.01-98.76 34.01-98.65Q34.01-98.53 34.01-99.00L34.01-99.00L34.01-99.69Q34.24-100.16 34.71-100.39Q35.17-100.63 35.64-101.09L35.64-101.09Q36.10-102.26 36.80-103.07Q37.50-103.89 38.20-105.05L38.20-105.05Q38.90-105.75 39.13-106.22L39.13-106.22Q39.37-106.68 39.60-107.15Q39.83-107.61 40.30-108.08L40.30-108.08Q40.30-108.31 40.41-108.31Q40.53-108.31 40.53-108.78L40.53-108.78Q40.76-109.01 41.00-109.48Q41.23-109.94 41.69-110.18L41.69-110.18Q41.93-110.18 41.93-110.53Q41.93-110.87 42.16-111.11L42.16-111.11Q42.63-111.57 42.98-111.92Q43.32-112.27 43.56-112.74L43.56-112.74Q45.19-114.83 46.12-116.93L46.12-116.93Q47.28-118.10 47.75-118.79L47.75-118.79Q48.45-119.49 48.45-120.19L48.45-120.19Q48.45-120.89 49.26-121.12Q50.08-121.36 50.31-122.29L50.31-122.29Q50.31-122.52 50.78-123.22Q51.24-123.92 51.71-124.38L51.71-124.38Q51.94-124.62 52.29-124.73Q52.64-124.85 52.64-125.08L52.64-125.08Q52.88-125.55 52.76-125.90Q52.64-126.25 52.64-126.48L52.64-126.48Q54.04-126.95 54.04-127.65L54.04-127.65Q54.27-128.58 54.97-128.93Q55.67-129.28 55.67-129.74L55.67-129.74Q55.67-130.21 56.25-130.79Q56.83-131.37 57.30-131.84L57.30-131.84Q58.00-132.54 58.23-133.00L58.23-133.00L58.23-133.93Q58.70-134.17 59.16-134.28Q59.63-134.40 59.86-135.57L59.86-135.57Q59.86-136.03 60.56-136.38Q61.26-136.73 61.26-137.43L61.26-137.43Q61.26-137.89 61.84-138.48Q62.43-139.06 62.89-139.53L62.89-139.53Q63.82-140.92 64.52-141.39L64.52-141.39Q65.22-142.09 65.45-142.67Q65.69-143.25 66.39-144.42L66.39-144.42Q66.39-144.88 66.62-144.65Q66.85-144.42 67.08-144.88L67.08-144.88Q67.08-145.58 68.48-146.98L68.48-146.98Q68.95-147.68 69.41-148.38Q69.88-149.08 70.34-150.24L70.34-150.24Q70.81-150.24 70.81-150.47L70.81-150.47Q71.04-150.94 71.39-151.29Q71.74-151.64 71.98-152.10L71.98-152.10Q72.21-152.34 72.32-152.57Q72.44-152.80 72.67-153.04L72.67-153.04Q72.67-153.50 73.14-153.85Q73.61-154.20 73.84-154.43L73.84-154.43Q74.30-155.13 74.42-155.83Q74.54-156.53 75.00-156.99L75.00-156.99Q75.24-157.23 75.24-157.69L75.24-157.69Q75.24-158.39 76.40-158.39L76.40-158.39Q77.80-158.86 77.57-157.69Q77.33-156.53 76.87-156.06L76.87-156.06Q77.57-156.06 77.57-156.65Q77.57-157.23 77.80-157.69L77.80-157.69L78.03-157.69Q78.26-157.69 78.26-157.81Q78.26-157.93 78.50-157.93L78.50-157.93Q78.73-157.93 78.96-158.16L78.96-158.16Q78.96-158.16 78.96-159.09L78.96-159.09Q79.20-159.32 79.55-159.32Q79.89-159.32 79.89-159.56L79.89-159.56Q80.13-159.79 80.01-160.14Q79.89-160.49 79.89-160.72L79.89-160.72Q80.36-160.95 80.83-161.07Q81.29-161.19 80.83-162.12L80.83-162.12Q81.99-162.35 82.57-162.59Q83.16-162.82 83.39-161.65L83.39-161.65Q84.55-162.12 84.79-163.40Q85.02-164.68 86.65-164.68L86.65-164.68Q89.91-165.15 90.61-163.28L90.61-163.28Q92.94-163.98 94.10-163.05Q95.27-162.12 97.13-161.65L97.13-161.65Q97.60-160.02 96.90-159.67Q96.20-159.32 96.20-158.16L96.20-158.16Q97.36-157.69 97.60-157.69Q97.83-157.69 98.76-158.16L98.76-158.16Q98.76-158.86 99.23-159.09L99.23-159.09Q99.46-159.32 99.81-159.09Q100.16-158.86 100.63-159.09L100.63-159.09Q101.32-157.93 102.72-156.99L102.72-156.99Q103.19-155.60 102.72-154.78Q102.26-153.97 101.79-153.04L101.79-153.04Q101.79-152.80 101.56-152.80L101.56-152.80Q101.32-152.80 101.09-152.57L101.09-152.57Q100.86-152.10 100.98-151.75Q101.09-151.40 100.63-151.17L100.63-151.17Q100.16-150.24 99.46-150.24L99.46-150.24Q99.46-148.84 99.23-148.61L99.23-148.61Q99.23-148.14 98.76-147.91Q98.30-147.68 98.06-147.44L98.06-147.44Q97.60-146.05 97.60-146.05L97.60-146.05Q98.06-144.88 98.41-145.93Q98.76-146.98 99.46-146.28L99.46-146.28Q97.36-141.39 94.57-136.50L94.57-136.50Q94.57-135.57 94.10-134.87L94.10-134.87Q93.87-134.40 93.52-134.28Q93.17-134.17 93.17-133.93L93.17-133.93Q92.94-133.47 92.94-132.65Q92.94-131.84 92.47-131.61L92.47-131.61Q91.77-130.67 91.54-129.74L91.54-129.74Q91.54-129.04 91.54-129.04L91.54-129.04Q91.08-128.58 90.96-128.23Q90.84-127.88 90.61-127.41L90.61-127.41L90.61-126.48Q89.91-125.78 89.21-123.92Q88.51-122.06 88.05-120.89L88.05-120.89Q86.65-117.16 85.37-112.97Q84.09-108.78 82.46-104.82L82.46-104.82Q80.59-99.00 78.96-93.52Q77.33-88.05 75.94-81.99L75.94-81.99Q75.47-80.13 75.24-78.38Q75.00-76.63 74.54-74.77L74.54-74.77Q74.07-73.84 74.07-73.14Q74.07-72.44 73.84-71.74L73.84-71.74Q73.37-70.34 73.61-69.06Q73.84-67.78 73.37-65.92L73.37-65.92Q73.37-65.45 73.14-65.10Q72.91-64.75 72.67-64.06L72.67-64.06L72.67-56.37Q72.44-54.51 72.32-51.48Q72.21-48.45 71.98-45.65L71.98-45.65Q71.74-43.09 71.39-39.60Q71.04-36.10 71.98-32.84L71.98-32.84Q72.44-33.31 72.67-34.12Q72.91-34.94 73.37-35.64L73.37-35.64Q74.30-36.80 74.07-40.18Q73.84-43.56 73.84-46.12L73.84-46.12Q73.84-46.82 74.07-47.40Q74.30-47.98 74.54-48.68L74.54-48.68Q74.54-49.85 74.42-50.90Q74.30-51.94 74.54-53.11L74.54-53.11Q75.00-57.77 75.59-62.54Q76.17-67.32 76.87-71.74L76.87-71.74Q77.33-72.91 77.57-73.96Q77.80-75.00 77.80-76.17L77.80-76.17Q78.03-77.33 78.03-77.80Q78.03-78.26 78.50-79.43L78.50-79.43Q78.50-79.66 78.38-80.01Q78.26-80.36 78.50-80.59L78.50-80.59Q79.20-81.06 79.55-83.74Q79.89-86.42 80.36-88.05L80.36-88.05L80.36-88.98Q80.83-89.45 81.29-90.96Q81.76-92.47 81.99-93.40L81.99-93.40L81.99-93.87L81.99-94.34Q82.46-94.80 82.57-95.62Q82.69-96.43 83.16-97.60L83.16-97.60Q83.16-98.53 83.51-99.23Q83.85-99.93 84.09-100.39L84.09-100.39Q84.55-101.56 84.55-102.26Q84.55-102.96 85.02-104.12L85.02-104.12Q85.02-105.05 85.02-105.05L85.02-105.05Q85.49-105.52 85.72-106.80Q85.95-108.08 86.65-109.71L86.65-109.71Q86.65-109.94 87.00-109.83Q87.35-109.71 87.35-110.18L87.35-110.18Q87.35-110.18 87.35-110.64L87.35-110.64Q87.58-111.81 88.16-113.09Q88.75-114.37 89.21-115.53L89.21-115.53Q90.61-119.73 92.47-124.27Q94.34-128.81 96.20-133.47L96.20-133.47Q96.43-133.93 96.55-134.63Q96.67-135.33 97.13-135.80L97.13-135.80Q97.13-136.26 97.48-136.38Q97.83-136.50 98.06-136.96L98.06-136.96L98.06-137.43Q98.06-137.89 98.06-137.89L98.06-137.89L98.30-137.89L98.76-137.89Q98.76-138.13 98.65-138.48Q98.53-138.83 98.76-139.06L98.76-139.06L99.00-139.06Q99.00-139.06 99.23-139.06L99.23-139.06L99.23-139.76L99.46-139.76Q99.93-140.69 99.81-141.62Q99.69-142.55 100.16-143.48L100.16-143.48Q100.39-143.95 100.74-144.07Q101.09-144.18 101.09-144.42L101.09-144.42Q101.56-145.12 102.02-146.05Q102.49-146.98 103.19-147.91L103.19-147.91Q103.65-148.38 104.12-148.96Q104.59-149.54 105.05-150.24L105.05-150.24Q105.52-150.71 105.52-151.29Q105.52-151.87 107.15-151.40L107.15-151.40Q107.38-150.47 107.03-149.66Q106.68-148.84 106.22-147.91L106.22-147.91Q106.22-147.91 105.75-146.28L105.75-146.28Q105.05-146.28 104.59-145.35L104.59-145.35Q104.35-144.88 104.35-144.42Q104.35-143.95 104.12-143.48L104.12-143.48Q104.12-143.25 103.65-143.02Q103.19-142.79 103.19-142.32L103.19-142.32Q102.72-141.62 102.61-140.81Q102.49-139.99 102.02-139.53L102.02-139.53Q101.79-139.06 101.79-139.29Q101.79-139.53 101.79-139.06L101.79-139.06Q101.79-138.36 100.86-136.85Q99.93-135.33 99.46-134.17L99.46-134.17Q99.46-133.24 99.00-132.30Q98.53-131.37 98.06-130.21L98.06-130.21Q97.60-128.34 97.13-127.41L97.13-127.41Q96.90-126.95 96.78-127.06Q96.67-127.18 96.67-126.71L96.67-126.71Q96.67-126.02 96.32-125.55Q95.97-125.08 95.50-124.38L95.50-124.38Q95.04-123.45 95.04-122.75Q95.04-122.06 94.57-121.12L94.57-121.12Q94.57-120.66 94.22-120.08Q93.87-119.49 93.64-118.79L93.64-118.79Q93.40-117.86 93.17-117.28Q92.94-116.70 92.47-115.53L92.47-115.53Q92.24-115.07 92.24-114.72Q92.24-114.37 92.01-113.67L92.01-113.67Q92.01-113.20 91.89-112.97Q91.77-112.74 91.54-112.27L91.54-112.27Q91.54-112.04 91.31-111.81L91.31-111.81L91.08-111.81Q90.61-110.41 90.49-109.24Q90.38-108.08 89.91-106.68L89.91-106.68Q89.91-106.45 89.79-106.45Q89.68-106.45 89.68-106.22L89.68-106.22Q86.18-92.24 82.69-77.10Q79.20-61.96 77.80-45.19L77.80-45.19Q78.03-44.72 78.50-44.96Q78.96-45.19 78.96-45.65L78.96-45.65Q85.02-56.14 91.89-65.45Q98.76-74.77 106.22-83.85L106.22-83.85Q106.68-84.55 107.15-85.25Q107.61-85.95 108.31-86.42L108.31-86.42Q109.01-87.58 110.18-88.51Q111.34-89.45 112.27-90.61L112.27-90.61Q112.74-91.08 113.09-91.77Q113.44-92.47 113.90-92.94L113.90-92.94Q114.83-94.10 115.77-95.04Q116.70-95.97 117.86-97.13L117.86-97.13Q121.59-101.09 125.67-105.28Q129.74-109.48 133.93-113.67L133.93-113.67Q135.57-115.07 137.08-116.58Q138.59-118.10 140.46-119.73L140.46-119.73Q142.09-120.89 143.48-122.64Q144.88-124.38 146.51-125.78L146.51-125.78Q146.98-126.25 147.44-126.13Q147.91-126.02 147.91-126.48L147.91-126.48Q148.61-126.95 149.54-127.88Q150.47-128.81 150.94-129.28L150.94-129.28Q152.10-130.21 153.04-131.26Q153.97-132.30 155.13-133.47L155.13-133.47Q155.83-133.93 156.41-134.28Q156.99-134.63 157.46-135.57L157.46-135.57Q158.39-136.03 159.79-137.43L159.79-137.43Q160.95-138.59 162.12-139.18Q163.28-139.76 164.45-140.92L164.45-140.92Q165.38-142.09 166.31-143.02Q167.24-143.95 168.18-144.88L168.18-144.88Q168.64-145.35 169.11-145.23Q169.57-145.12 169.57-145.35L169.57-145.35Q170.27-146.05 171.09-146.98Q171.90-147.91 172.60-148.61L172.60-148.61Q173.53-149.08 175.40-150.47L175.40-150.47Q175.86-150.94 176.33-151.52Q176.79-152.10 177.26-152.57L177.26-152.57Q177.49-153.04 177.96-152.92Q178.42-152.80 178.89-153.04L178.89-153.04Q179.12-153.27 179.24-153.50Q179.36-153.73 179.82-154.20L179.82-154.20Q180.29-154.67 180.75-155.13Q181.22-155.60 181.69-156.06L181.69-156.06Q182.38-156.53 183.08-156.88Q183.78-157.23 184.25-157.69L184.25-157.69Q184.95-158.16 185.41-158.63Q185.88-159.09 186.58-159.56L186.58-159.56Q187.04-160.02 187.74-160.37Q188.44-160.72 188.91-160.95L188.91-160.95Q189.37-161.42 189.84-162.12Q190.30-162.82 191.00-163.28L191.00-163.28Q192.17-163.75 193.56-164.68L193.56-164.68Q194.03-165.15 194.50-165.61Q194.96-166.08 195.43-166.54L195.43-166.54Q196.13-167.01 196.83-167.36Q197.52-167.71 197.99-168.18L197.99-168.18Q198.46-168.64 198.92-169.22Q199.39-169.81 200.09-170.27L200.09-170.27Q200.32-170.50 200.79-170.50Q201.25-170.50 201.48-170.50L201.48-170.50Q201.95-170.97 202.53-171.67Q203.11-172.37 203.58-172.83L203.58-172.83Q204.51-172.83 205.21-173.07L205.21-173.07Q205.68-173.53 206.14-174.23Q206.61-174.93 207.07-175.40L207.07-175.40Q208.71-175.86 209.40-176.79L209.40-176.79Q209.40-177.26 209.05-177.03Q208.71-176.79 208.47-176.33L208.47-176.33Q208.01-176.56 208.24-176.68Q208.47-176.79 208.47-177.26L208.47-177.26Q209.17-177.26 209.64-177.73Q210.10-178.19 210.80-178.66L210.80-178.66Q210.80-179.12 211.27-179.01Q211.73-178.89 212.20-179.36L212.20-179.36Q212.20-180.05 212.67-180.29L212.67-180.29Q213.13-180.75 213.36-180.64Q213.60-180.52 214.06-180.75L214.06-180.75Q214.53-180.75 214.41-180.99Q214.30-181.22 214.76-181.22L214.76-181.22Q215.23-181.22 215.23-181.69Q215.23-182.15 215.69-182.38L215.69-182.38Q216.62-182.38 216.62-182.38L216.62-182.38Q217.09-182.85 217.56-182.73Q218.02-182.62 219.19-182.62L219.19-182.62Q219.65-182.85 220.00-183.08Q220.35-183.32 221.28-183.32L221.28-183.32Q223.38-183.32 225.48-182.62Q227.57-181.92 229.44-180.75L229.44-180.75Q229.90-178.42 229.90-176.33L229.90-176.33Q231.07-176.10 231.42-176.68Q231.77-177.26 232.23-177.73L232.23-177.73Q232.23-178.19 231.88-178.42Q231.53-178.66 231.18-178.77Q230.83-178.89 230.83-179.12Q230.83-179.36 231.30-179.82L231.30-179.82Q234.09-178.66 236.07-177.03Q238.05-175.40 239.92-173.53L239.92-173.53Q239.92-172.83 239.92-171.79Q239.92-170.74 239.45-170.27L239.45-170.27Q239.92-169.34 240.73-169.11Q241.55-168.87 241.55-167.71L241.55-167.71Q241.78-166.08 241.08-164.68Q240.38-163.28 239.92-162.12L239.92-162.12Q239.92-161.89 239.80-161.30Q239.68-160.72 239.45-160.72L239.45-160.72Q239.22-160.49 238.87-160.37Q238.52-160.26 238.29-160.02L238.29-160.02Q237.82-159.56 237.82-158.86Q237.82-158.16 237.59-157.69L237.59-157.69Q237.12-157.23 236.77-157.11Q236.42-156.99 236.19-156.53L236.19-156.53Q236.19-155.60 236.19-155.60L236.19-155.60Q235.96-155.36 235.38-154.67Q234.79-153.97 234.79-153.50L234.79-153.50Q234.79-153.04 234.33-152.34Q233.86-151.64 233.40-151.17L233.40-151.17Q232.93-150.47 232.81-149.89Q232.70-149.31 232.23-148.84L232.23-148.84Q232.23-148.61 231.88-148.49Q231.53-148.38 231.30-147.91L231.30-147.91Q230.83-147.68 230.83-146.98L230.83-146.98Q230.60-146.51 230.60-146.16Q230.60-145.81 230.13-145.35L230.13-145.35Q230.13-145.12 229.79-145.12Q229.44-145.12 229.44-144.88L229.44-144.88Q228.97-144.42 228.74-143.83Q228.50-143.25 228.04-142.32L228.04-142.32Q228.04-142.09 227.34-141.39L227.34-141.39Q226.64-140.46 225.94-138.83Q225.24-137.20 224.08-135.80L224.08-135.80Q224.08-136.03 222.91-134.87L222.91-134.87Q222.91-134.63 223.15-134.40Q223.38-134.17 222.91-133.93L222.91-133.93Q222.91-133.93 222.91-133.47L222.91-133.47L222.91-133.00L222.22-133.00Q222.22-132.77 222.33-132.30Q222.45-131.84 222.22-131.84L222.22-131.84L221.52-131.84Q221.05-130.67 220.47-129.63Q219.89-128.58 219.19-127.41L219.19-127.41Q218.49-126.25 217.91-125.08Q217.32-123.92 216.62-122.75L216.62-122.75Q216.16-122.29 216.16-121.59Q216.16-120.89 215.69-120.19L215.69-120.19Q215.69-119.73 215.23-119.73Q214.76-119.73 214.76-119.26L214.76-119.26Q214.76-119.26 214.76-118.79L214.76-118.79L214.76-118.33L214.06-118.33Q213.60-117.63 213.48-117.16Q213.36-116.70 213.36-115.53L213.36-115.53Q212.67-115.53 212.67-115.07L212.67-115.07Q212.43-114.60 212.43-114.37L212.43-114.37Q212.20-114.14 212.20-113.90L212.20-113.90L212.20-113.67Q211.97-113.20 211.50-113.09Q211.03-112.97 211.03-112.74L211.03-112.74Q211.03-112.74 211.03-112.27L211.03-112.27L211.03-111.81Q210.80-111.34 210.34-110.64Q209.87-109.94 209.40-109.01L209.40-109.01Q209.17-108.55 209.05-107.96Q208.94-107.38 208.47-106.68L208.47-106.68Q208.47-106.45 208.12-106.22Q207.77-105.98 207.54-105.52L207.54-105.52Q207.54-104.82 207.54-104.82L207.54-104.82Q207.07-104.35 206.73-103.77Q206.38-103.19 205.91-102.26L205.91-102.26Q205.68-101.56 205.56-100.86Q205.44-100.16 205.21-99.69L205.21-99.69Q204.98-99.23 204.51-99.00Q204.05-98.76 204.05-98.30L204.05-98.30Q204.05-98.30 204.05-97.83L204.05-97.83L204.05-97.60L203.58-97.60Q203.11-97.13 203.23-96.32Q203.35-95.50 203.11-95.04L203.11-95.04Q202.88-94.80 202.53-94.57Q202.18-94.34 201.95-94.10L201.95-94.10Q201.72-93.87 201.95-93.40Q202.18-92.94 201.95-92.94L201.95-92.94Q200.79-92.01 200.09-89.68Q199.39-87.35 198.69-85.49L198.69-85.49Q198.46-85.25 198.34-85.37Q198.22-85.49 197.99-85.02L197.99-85.02Q197.76-84.32 197.76-83.85Q197.76-83.39 197.52-82.92L197.52-82.92Q197.29-82.46 196.94-82.34Q196.59-82.22 196.36-81.99L196.36-81.99Q196.36-81.76 196.48-81.41Q196.59-81.06 196.36-80.83L196.36-80.83Q196.36-80.83 196.13-79.66L196.13-79.66L195.66-79.20Q195.43-78.96 195.43-78.50L195.43-78.50L194.96-78.50Q194.50-77.80 194.73-77.10Q194.96-76.40 194.50-75.94L194.50-75.94Q194.26-75.70 193.91-75.35Q193.56-75.00 193.56-74.77L193.56-74.77L193.56-73.37Q193.56-73.14 192.98-72.91Q192.40-72.67 192.40-72.21L192.40-72.21Q192.17-71.74 192.28-71.51Q192.40-71.28 192.40-70.81L192.40-70.81L191.47-69.88Q191.47-69.41 191.58-69.06Q191.70-68.71 191.47-68.25L191.47-68.25Q191.47-68.02 191.00-67.78Q190.54-67.55 190.54-67.32L190.54-67.32Q190.30-66.85 190.54-66.62Q190.77-66.39 190.54-65.92L190.54-65.92L189.37-64.75Q188.91-63.82 189.14-63.36Q189.37-62.89 188.91-61.73L188.91-61.73Q188.91-61.49 188.67-61.61Q188.44-61.73 188.44-61.26L188.44-61.26Q188.44-60.79 187.86-59.40Q187.28-58.00 186.81-57.07L186.81-57.07L186.81-56.37Q186.81-56.14 186.58-56.37L186.58-56.37Q185.41-53.57 184.48-50.43Q183.55-47.28 182.38-44.02L182.38-44.02L182.38-43.09Q181.45-42.39 180.87-39.60Q180.29-36.80 179.82-34.94L179.82-34.94Q179.12-32.38 178.19-29.70Q177.26-27.02 176.79-24.46L176.79-24.46Q176.33-22.13 175.98-20.03Q175.63-17.94 175.40-15.37L175.40-15.37Q174.70-11.18 175.86-5.82L175.86-5.82Q174.93-5.36 173.88-4.89Q172.83-4.43 171.20-4.66L171.20-4.66Q170.97-3.49 171.32-2.91Q171.67-2.33 171.90-1.16L171.90-1.16Q170.04-1.16 170.04-2.33Q170.04-3.49 169.57-4.66L169.57-4.66Q168.87-5.12 167.71-5.24Q166.54-5.36 165.61-5.82L165.61-5.82Q164.45-9.08 164.68-14.44L164.68-14.44Q163.52-15.61 163.52-14.33Q163.52-13.04 162.35-13.28L162.35-13.28Q161.65-13.98 161.65-14.91L161.65-14.91Q160.95-15.37 160.61-14.67Q160.26-13.98 160.26-13.74L160.26-13.74Q159.79-13.51 159.21-13.74Q158.63-13.98 158.16-13.74L158.16-13.74Q157.46-13.28 156.88-12.58Q156.30-11.88 155.13-12.35L155.13-12.35Q152.57-17.00 153.27-23.53Q153.97-30.05 154.90-35.64L154.90-35.64Q153.73-34.71 153.73-32.84L153.73-32.84Q153.50-32.38 153.04-30.51L153.04-30.51Q152.80-29.58 152.80-28.65Q152.80-27.72 152.57-26.55L152.57-26.55Q152.10-24.69 151.99-21.20Q151.87-17.70 152.57-14.91L152.57-14.91Q151.64-15.61 151.29-17.47Q150.94-19.33 150.47-21.20L150.47-21.20Q150.24-23.76 150.36-25.97Q150.47-28.18 150.94-30.51L150.94-30.51Q151.40-32.38 151.75-34.01Q152.10-35.64 152.57-37.50L152.57-37.50Q153.50-41.46 154.55-45.89Q155.60-50.31 156.76-54.27L156.76-54.27Q157.46-57.53 158.51-60.79Q159.56-64.06 160.49-67.32L160.49-67.32Q161.65-70.58 162.59-73.72Q163.52-76.87 164.68-79.66L164.68-79.66Q164.68-80.13 164.91-80.01Q165.15-79.89 165.15-80.59L165.15-80.59L165.15-80.83Q165.61-81.76 165.61-82.46L165.61-82.46Q165.61-82.92 165.85-83.16Q166.08-83.39 166.31-83.85L166.31-83.85Q166.31-84.32 166.54-84.67Q166.78-85.02 166.78-85.49L166.78-85.49Q167.01-85.95 167.13-85.83Q167.24-85.72 167.24-85.95L167.24-85.95Q167.94-87.58 168.29-89.33Q168.64-91.08 169.34-92.71L169.34-92.71Q169.34-92.71 169.57-92.94L169.57-92.94Q169.57-93.87 169.92-94.22Q170.27-94.57 170.74-95.50L170.74-95.50Q171.20-96.67 171.44-97.71Q171.67-98.76 172.14-100.16L172.14-100.16L172.37-100.16Q172.37-100.16 172.60-100.39L172.60-100.39Q172.83-100.86 172.72-101.09Q172.60-101.32 172.60-101.56L172.60-101.56Q173.07-102.49 173.77-102.49L173.77-102.49Q174.00-102.72 173.77-103.07Q173.53-103.42 173.77-103.65L173.77-103.65Q174.00-104.12 174.12-104.00Q174.23-103.89 174.46-104.12L174.46-104.12Q175.40-106.68 176.21-108.66Q177.03-110.64 178.19-112.97L178.19-112.97Q178.66-113.44 178.66-113.90Q178.66-114.37 178.89-114.83L178.89-114.83Q178.89-115.07 179.24-115.18Q179.59-115.30 179.82-115.53L179.82-115.53Q180.29-116.23 180.17-116.70Q180.05-117.16 180.29-117.63L180.29-117.63Q180.52-118.10 180.87-118.21Q181.22-118.33 181.45-118.79L181.45-118.79Q181.69-119.49 181.69-120.19L181.69-120.19Q182.15-121.12 182.85-121.12L182.85-121.12Q183.08-121.59 183.08-121.94Q183.08-122.29 183.32-122.75L183.32-122.75Q183.55-123.22 183.90-123.45Q184.25-123.69 184.25-123.92L184.25-123.92Q184.71-125.08 184.95-125.08L184.95-125.08Q184.95-125.32 185.18-125.43Q185.41-125.55 185.41-125.78L185.41-125.78Q185.65-126.48 185.88-126.48L185.88-126.48Q185.88-126.71 186.58-126.71L186.58-126.71ZM180.99-141.39L180.99-141.39Q180.29-140.92 179.82-140.46Q179.36-139.99 178.89-139.53L178.89-139.53Q178.19-139.06 177.49-138.71Q176.79-138.36 176.33-137.89L176.33-137.89Q174.93-136.50 174.46-135.80L174.46-135.80Q173.77-135.33 173.07-134.87Q172.37-134.40 171.90-133.93L171.90-133.93Q170.97-133.24 170.16-132.30Q169.34-131.37 168.64-130.91L168.64-130.91Q168.18-130.44 167.83-130.56Q167.48-130.67 167.24-130.21L167.24-130.21Q166.08-129.51 165.15-128.23Q164.22-126.95 163.75-126.48L163.75-126.48Q163.52-126.25 163.17-126.36Q162.82-126.48 162.59-126.48L162.59-126.48Q161.65-125.32 160.72-124.38Q159.79-123.45 158.86-122.29L158.86-122.29Q156.30-120.42 154.20-118.33Q152.10-116.23 150.01-114.37L150.01-114.37Q145.81-110.41 141.50-105.98Q137.20-101.56 133.47-97.60L133.47-97.60Q132.30-96.43 131.37-95.27Q130.44-94.10 129.28-92.94L129.28-92.94Q128.58-92.01 127.41-91.08Q126.25-90.14 125.55-88.98L125.55-88.98Q123.92-87.81 123.45-86.88L123.45-86.88Q122.99-86.42 122.64-85.72Q122.29-85.02 121.59-84.55L121.59-84.55Q120.89-83.39 119.84-82.46Q118.79-81.53 117.86-80.59L117.86-80.59Q117.40-79.89 117.05-79.20Q116.70-78.50 116.23-78.03L116.23-78.03Q115.77-77.33 115.18-76.98Q114.60-76.63 114.14-76.17L114.14-76.17Q113.90-76.17 114.14-75.94Q114.37-75.70 114.14-75.47L114.14-75.47Q113.90-74.77 113.32-74.30Q112.74-73.84 112.27-73.37L112.27-73.37Q111.11-72.21 110.29-71.16Q109.48-70.11 108.78-68.71L108.78-68.71Q108.31-68.25 107.73-67.55Q107.15-66.85 106.68-66.39L106.68-66.39Q104.82-64.06 103.07-61.61Q101.32-59.16 99.46-56.60L99.46-56.60Q99.00-55.20 98.06-54.27L98.06-54.27Q97.60-53.81 97.13-53.22Q96.67-52.64 96.20-51.94L96.20-51.94Q95.97-51.71 95.97-51.36Q95.97-51.01 95.50-50.55L95.50-50.55Q95.04-50.55 94.57-49.38L94.57-49.38Q94.10-48.92 93.87-48.10Q93.64-47.28 93.17-46.59L93.17-46.59Q92.47-46.59 92.01-45.65L92.01-45.65Q91.77-45.19 91.89-44.84Q92.01-44.49 91.54-44.02L91.54-44.02Q91.54-43.79 91.19-43.67Q90.84-43.56 90.61-43.09L90.61-43.09Q90.14-42.63 90.26-42.39Q90.38-42.16 89.91-41.69L89.91-41.69Q89.68-41.23 89.56-41.11Q89.45-41.00 89.21-40.53L89.21-40.53Q88.75-40.06 88.75-39.83Q88.75-39.60 88.51-39.13L88.51-39.13Q88.51-38.67 88.05-38.55Q87.58-38.43 87.35-37.97L87.35-37.97Q87.35-37.27 87.35-37.27L87.35-37.27Q87.35-37.04 87.00-36.92Q86.65-36.80 86.65-36.57L86.65-36.57Q86.18-35.87 85.95-35.06Q85.72-34.24 85.49-33.54L85.49-33.54Q85.25-33.08 85.02-32.96Q84.79-32.84 84.55-32.38L84.55-32.38Q84.32-32.14 84.32-31.79Q84.32-31.45 84.09-30.98L84.09-30.98Q82.46-28.18 81.76-25.16L81.76-25.16Q81.29-24.22 80.94-23.76Q80.59-23.29 80.36-22.83L80.36-22.83Q80.36-22.59 79.89-21.20L79.89-21.20Q79.89-20.73 79.78-20.50Q79.66-20.26 79.66-20.03L79.66-20.03Q79.20-19.57 79.20-19.10Q79.20-18.63 78.96-18.40L78.96-18.40Q78.73-17.24 78.38-14.79Q78.03-12.35 78.96-11.88L78.96-11.88Q79.66-17.00 81.41-21.66Q83.16-26.32 85.02-30.05L85.02-30.05Q85.02-30.28 85.49-31.68L85.49-31.68Q85.72-31.91 86.07-32.03Q86.42-32.14 86.65-32.38L86.65-32.38Q87.12-33.77 87.35-34.01L87.35-34.01L87.35-34.94Q87.58-35.41 87.81-35.29Q88.05-35.17 88.05-35.64L88.05-35.64Q88.51-36.10 88.63-37.04Q88.75-37.97 89.21-38.43L89.21-38.43Q89.21-38.67 89.45-38.90Q89.68-39.13 89.91-39.60L89.91-39.60Q90.38-40.53 90.73-41.00Q91.08-41.46 91.54-42.16L91.54-42.16Q92.01-42.86 92.36-43.44Q92.71-44.02 93.17-44.49L93.17-44.49Q93.64-45.42 93.87-46.00Q94.10-46.59 94.57-47.05L94.57-47.05Q95.04-47.75 95.38-48.45Q95.73-49.15 96.20-49.38L96.20-49.38Q96.43-49.85 97.13-50.55L97.13-50.55Q98.06-52.41 98.76-53.11L98.76-53.11Q99.46-54.74 99.46-55.20L99.46-55.20Q99.93-55.67 100.63-55.67L100.63-55.67Q101.09-56.14 100.98-56.49Q100.86-56.83 101.09-57.07L101.09-57.07Q101.32-57.30 102.02-58.47L102.02-58.47Q102.96-59.40 103.65-60.79L103.65-60.79Q104.12-61.26 104.70-61.73Q105.28-62.19 105.75-62.66L105.75-62.66Q106.22-63.59 106.45-64.06Q106.68-64.52 107.15-65.22L107.15-65.22Q108.31-66.39 109.01-67.55Q109.71-68.71 110.87-69.88L110.87-69.88Q111.34-70.34 111.81-70.81Q112.27-71.28 112.74-71.74L112.74-71.74Q113.20-72.21 113.09-72.56Q112.97-72.91 113.44-73.37L113.44-73.37Q114.37-73.84 114.83-74.30L114.83-74.30Q115.30-75.00 115.53-75.59Q115.77-76.17 116.23-77.10L116.23-77.10Q116.70-77.57 117.28-77.92Q117.86-78.26 118.33-78.73L118.33-78.73Q119.26-80.13 120.08-81.18Q120.89-82.22 121.59-83.39L121.59-83.39Q122.75-84.55 123.80-85.49Q124.85-86.42 125.78-87.58L125.78-87.58Q126.02-87.81 126.36-87.93Q126.71-88.05 126.95-88.51L126.95-88.51Q127.18-88.98 127.06-89.33Q126.95-89.68 127.41-90.14L127.41-90.14Q127.88-90.61 128.69-90.96Q129.51-91.31 129.97-92.01L129.97-92.01Q131.84-94.10 133.70-96.32Q135.57-98.53 137.66-100.39L137.66-100.39Q141.62-104.82 145.70-108.89Q149.77-112.97 153.97-116.93L153.97-116.93Q155.13-117.86 156.06-118.91Q156.99-119.96 158.16-120.89L158.16-120.89Q158.86-121.36 160.26-122.75L160.26-122.75Q160.49-123.22 160.84-123.10Q161.19-122.99 161.65-123.22L161.65-123.22Q162.12-123.69 162.24-124.04Q162.35-124.38 162.59-124.62L162.59-124.62Q163.05-125.08 163.63-125.67Q164.22-126.25 164.68-126.71L164.68-126.71Q165.15-127.18 165.96-127.53Q166.78-127.88 167.24-128.34L167.24-128.34Q168.41-129.28 169.22-130.32Q170.04-131.37 171.20-132.30L171.20-132.30Q172.37-133.47 173.53-134.05Q174.70-134.63 175.86-135.80L175.86-135.80Q176.33-136.26 176.79-136.85Q177.26-137.43 177.73-137.89L177.73-137.89Q178.89-139.06 180.29-139.76L180.29-139.76Q182.62-141.62 184.95-143.60Q187.28-145.58 189.37-147.44L189.37-147.44Q191.70-149.31 194.26-151.06Q196.83-152.80 198.69-155.13L198.69-155.13Q198.92-155.36 199.27-155.60Q199.62-155.83 198.69-156.06L198.69-156.06Q194.50-152.34 189.95-148.73Q185.41-145.12 180.99-141.39ZM75.00-153.27L75.00-152.57Q74.30-152.34 73.84-151.40L73.84-151.40Q74.77-151.40 75.47-152.92Q76.17-154.43 75.24-153.50L75.24-153.50Q75.00-153.50 75.00-153.27L75.00-153.27ZM214.76-149.31L214.76-149.31Q214.76-148.84 214.53-148.96Q214.30-149.08 214.06-148.84L214.06-148.84Q213.36-147.91 213.36-146.28L213.36-146.28Q213.13-146.28 212.67-146.28Q212.20-146.28 212.20-146.05L212.20-146.05Q212.20-146.05 211.73-145.12L211.73-145.12Q211.50-144.65 211.50-144.42L211.50-144.42Q211.50-143.95 211.15-143.72Q210.80-143.48 210.80-143.02L210.80-143.02Q210.80-142.32 210.22-141.85Q209.64-141.39 209.40-140.92L209.40-140.92Q209.40-140.46 208.94-140.22Q208.47-139.99 208.47-139.53L208.47-139.53Q208.47-138.59 208.12-138.24Q207.77-137.89 207.54-137.43L207.54-137.43Q207.54-136.73 206.73-136.03Q205.91-135.33 205.91-134.87L205.91-134.87Q205.91-134.40 205.79-134.40Q205.68-134.40 205.68-134.17L205.68-134.17Q205.21-133.70 205.33-133.24Q205.44-132.77 205.21-132.30L205.21-132.30Q204.98-132.07 204.51-132.07L204.51-132.07Q204.28-132.07 204.05-131.84L204.05-131.84Q203.81-131.84 203.81-130.91L203.81-130.91Q203.81-130.44 203.58-130.21L203.58-130.21Q203.58-129.74 203.35-129.97Q203.11-130.21 203.11-129.74L203.11-129.74Q202.88-129.28 202.88-128.81Q202.88-128.34 202.65-127.65L202.65-127.65Q201.95-127.65 201.95-127.65L201.95-127.65Q201.72-127.65 201.95-127.30Q202.18-126.95 201.95-126.71L201.95-126.71Q201.72-126.48 201.48-126.60Q201.25-126.71 201.02-126.48L201.02-126.48Q200.79-125.78 200.90-125.32Q201.02-124.85 200.55-124.38L200.55-124.38Q200.55-124.38 200.09-124.38L200.09-124.38Q199.85-124.15 200.09-123.92Q200.32-123.69 200.09-123.22L200.09-123.22L199.39-123.22Q199.16-123.22 199.04-122.64Q198.92-122.06 198.69-121.82L198.69-121.82Q198.69-121.36 198.34-120.77Q197.99-120.19 197.99-119.73L197.99-119.73Q197.99-119.26 197.76-119.49Q197.52-119.73 197.52-119.26L197.52-119.26Q197.06-118.33 196.83-117.28Q196.59-116.23 196.13-115.07L196.13-115.07Q196.13-114.83 195.89-114.83L195.89-114.83L195.43-114.83Q194.96-114.14 194.26-112.62Q193.56-111.11 193.56-110.64L193.56-110.64Q193.56-110.18 192.98-109.71Q192.40-109.24 192.40-108.78L192.40-108.78Q192.40-108.31 192.28-108.31Q192.17-108.31 191.93-108.08L191.93-108.08Q191.47-107.15 191.24-106.10Q191.00-105.05 190.54-104.12L190.54-104.12Q190.54-103.65 189.84-103.65L189.84-103.65Q188.67-101.79 188.21-100.04Q187.74-98.30 186.81-96.43L186.81-96.43L186.58-95.97Q186.11-95.50 185.76-94.69Q185.41-93.87 185.41-93.40L185.41-93.40Q185.41-92.94 185.18-93.06Q184.95-93.17 184.95-92.94L184.95-92.94Q184.48-92.47 184.48-92.01Q184.48-91.54 184.25-90.84L184.25-90.84Q184.25-90.38 183.67-89.21Q183.08-88.05 182.85-87.58L182.85-87.58Q182.62-87.12 182.50-86.77Q182.38-86.42 182.38-85.95L182.38-85.95Q182.38-85.49 182.15-85.60Q181.92-85.72 181.69-85.49L181.69-85.49Q181.69-84.09 181.45-83.39L181.45-83.39Q180.75-81.53 180.05-80.24Q179.36-78.96 178.89-77.33L178.89-77.33Q177.73-74.77 176.91-72.21Q176.10-69.65 175.40-67.32L175.40-67.32Q174.93-66.15 174.12-64.52Q173.30-62.89 173.30-61.73L173.30-61.73Q173.30-61.26 173.07-61.38Q172.83-61.49 172.60-61.26L172.60-61.26Q172.14-60.10 172.14-59.05Q172.14-58.00 171.90-56.60L171.90-56.60L171.67-56.60Q171.44-56.60 171.20-56.37L171.20-56.37Q170.74-54.04 170.27-52.64L170.27-52.64Q169.81-51.71 169.46-50.66Q169.11-49.61 168.64-48.68L168.64-48.68Q168.18-47.52 168.18-46.35Q168.18-45.19 167.71-44.02L167.71-44.02L167.24-44.02Q166.78-43.79 167.01-43.09Q167.24-42.39 166.78-42.16L166.78-42.16L166.78-41.69L166.78-41.23Q166.31-39.83 165.96-38.32Q165.61-36.80 165.15-35.64L165.15-35.64Q164.45-31.68 163.52-27.25Q162.59-22.83 163.05-19.33L163.05-19.33Q163.28-18.63 163.05-18.05Q162.82-17.47 163.75-17.00L163.75-17.00Q163.75-21.43 164.57-26.32Q165.38-31.21 166.31-34.71L166.31-34.71Q166.54-35.17 166.54-35.75Q166.54-36.34 166.78-37.27L166.78-37.27L167.24-37.27Q167.71-37.50 167.48-38.08Q167.24-38.67 167.71-39.13L167.71-39.13L167.71-39.83Q168.18-41.00 168.64-43.32Q169.11-45.65 169.57-46.12L169.57-46.12L169.57-47.05Q170.04-47.98 170.50-49.15Q170.97-50.31 171.20-50.55L171.20-50.55L171.20-51.01L171.20-51.71Q171.67-52.64 171.79-53.46Q171.90-54.27 172.14-55.20L172.14-55.20Q174.00-59.86 175.40-63.82L175.40-63.82Q175.86-65.45 176.56-67.08Q177.26-68.71 177.26-69.88L177.26-69.88Q177.49-70.34 177.49-70.23Q177.49-70.11 177.73-70.34L177.73-70.34Q178.19-71.51 178.42-72.21Q178.66-72.91 178.89-73.37L178.89-73.37L178.89-73.84Q178.89-74.30 179.12-74.19Q179.36-74.07 179.36-74.30L179.36-74.30Q179.82-75.47 179.94-76.05Q180.05-76.63 180.29-77.10L180.29-77.10Q180.29-77.10 180.29-78.03L180.29-78.03Q180.75-78.73 181.10-79.08Q181.45-79.43 181.45-80.59L181.45-80.59Q181.45-80.83 181.69-80.83L181.69-80.83Q182.62-82.92 183.32-85.49L183.32-85.49Q183.78-86.18 184.25-87.23Q184.71-88.28 184.95-88.98L184.95-88.98Q184.95-89.45 185.18-89.33Q185.41-89.21 185.41-89.45L185.41-89.45Q185.65-90.61 185.88-91.54L185.88-91.54Q186.34-92.71 186.81-93.29Q187.28-93.87 187.28-95.04L187.28-95.04Q187.51-95.50 187.97-95.97Q188.44-96.43 188.44-97.13L188.44-97.13Q188.44-97.60 188.67-97.48Q188.91-97.36 188.91-97.60L188.91-97.60Q189.37-99.00 189.84-100.28Q190.30-101.56 191.00-102.26L191.00-102.26L191.00-103.19L191.24-103.19Q191.24-103.19 191.47-103.19L191.47-103.19L191.47-104.12L191.70-104.12Q191.70-104.12 191.93-104.12L191.93-104.12L191.93-104.59L191.93-105.05L192.40-105.05Q192.40-105.28 192.63-105.75L192.63-105.75Q192.63-106.22 192.75-106.33Q192.87-106.45 192.87-106.68L192.87-106.68Q193.80-107.85 193.80-109.01L193.80-109.01Q193.80-109.94 194.38-110.18Q194.96-110.41 194.96-111.11L194.96-111.11Q194.96-112.04 195.54-112.27Q196.13-112.51 196.13-112.97L196.13-112.97Q196.13-114.14 196.48-114.37Q196.83-114.60 196.83-115.07L196.83-115.07Q197.06-116.00 197.52-116.35Q197.99-116.70 197.99-117.16L197.99-117.16Q198.22-117.63 198.34-117.51Q198.46-117.40 198.69-117.63L198.69-117.63Q200.55-121.59 202.53-125.90Q204.51-130.21 206.61-133.47L206.61-133.47Q206.61-133.47 207.07-133.47L207.07-133.47L207.07-133.70Q207.07-134.17 207.07-134.17L207.07-134.17L207.54-134.17Q207.77-134.40 207.66-134.87Q207.54-135.33 207.54-135.57L207.54-135.57Q208.01-135.80 208.36-136.15Q208.71-136.50 209.17-136.96L209.17-136.96Q209.40-137.43 209.40-139.06L209.40-139.06L210.10-139.06Q210.10-139.06 210.10-139.76L210.10-139.76L210.34-139.76L210.80-139.76Q210.80-139.99 210.69-140.46Q210.57-140.92 210.80-140.92L210.80-140.92Q210.80-141.39 211.15-141.39Q211.50-141.39 211.50-141.85L211.50-141.85Q211.73-142.55 212.20-143.02Q212.67-143.48 212.67-143.95L212.67-143.95Q212.67-144.42 212.90-144.30Q213.13-144.18 213.36-144.42L213.36-144.42Q214.06-146.51 215.23-147.44L215.23-147.44Q215.23-147.68 215.11-148.03Q214.99-148.38 215.23-148.61L215.23-148.61L215.69-148.61L215.69-148.84L215.69-149.31Q216.16-150.01 216.97-150.59Q217.79-151.17 216.62-152.10L216.62-152.10Q216.39-151.17 215.58-150.59Q214.76-150.01 214.76-149.31ZM93.17-136.96L93.17-136.96Q92.94-136.26 93.40-136.03Q93.87-135.80 93.64-136.96L93.64-136.96Q94.57-137.20 94.57-139.06L94.57-139.06Q95.50-139.06 94.57-139.53L94.57-139.53Q94.10-139.06 93.99-138.13Q93.87-137.20 93.17-136.96ZM55.20-78.73L55.20-78.73Q55.20-78.50 55.32-78.15Q55.44-77.80 55.20-77.33L55.20-77.33Q55.20-76.87 54.62-75.59Q54.04-74.30 55.20-73.84L55.20-73.84Q55.20-75.47 55.32-76.40Q55.44-77.33 55.67-78.50L55.67-78.50Q56.37-81.76 56.83-83.85L56.83-83.85Q56.83-84.32 57.07-84.32Q57.30-84.32 57.30-84.55L57.30-84.55Q57.77-85.72 57.77-87.12Q57.77-88.51 58.23-88.98L58.23-88.98Q58.70-89.45 58.58-90.03Q58.47-90.61 58.93-90.84L58.93-90.84Q59.16-91.08 58.93-92.12Q58.70-93.17 58.23-92.94L58.23-92.94Q57.30-89.68 56.49-85.83Q55.67-81.99 55.20-78.73ZM137.66-86.88L137.66-86.88Q137.20-86.42 137.20-86.18Q137.20-85.95 137.66-86.42L137.66-86.42Q138.83-86.88 139.29-87.93Q139.76-88.98 140.92-89.45L140.92-89.45Q140.92-90.14 141.62-90.14L141.62-90.14Q141.62-90.61 141.27-90.61Q140.92-90.61 140.92-90.14L140.92-90.14Q139.76-89.45 139.29-88.51Q138.83-87.58 137.66-86.88ZM132.30-80.83L132.30-80.83Q131.61-79.89 130.91-79.31Q130.21-78.73 129.28-78.03L129.28-78.03Q128.11-76.40 126.83-74.89Q125.55-73.37 124.38-72.21L124.38-72.21Q124.38-72.21 124.38-71.28L124.38-71.28Q123.92-70.81 122.64-69.88Q121.36-68.95 121.36-68.25L121.36-68.25Q121.12-67.78 120.08-66.73Q119.03-65.69 118.79-65.22L118.79-65.22Q118.10-64.29 117.51-63.71Q116.93-63.12 116.23-62.43L116.23-62.43Q115.53-61.49 114.95-60.56Q114.37-59.63 113.90-58.70L113.90-58.70Q112.51-57.07 110.87-55.09Q109.24-53.11 108.31-51.71L108.31-51.71Q108.08-51.48 108.08-51.24Q108.08-51.01 107.85-50.55L107.85-50.55Q107.38-50.08 107.03-49.85Q106.68-49.61 106.22-49.38L106.22-49.38Q105.75-48.92 105.63-48.22Q105.52-47.52 105.05-47.05L105.05-47.05Q104.59-46.59 104.35-46.35Q104.12-46.12 103.65-45.65L103.65-45.65Q103.42-45.42 103.65-45.19Q103.89-44.96 103.65-44.49L103.65-44.49Q103.42-44.26 103.19-44.26L103.19-44.26Q102.96-44.26 102.72-44.02L102.72-44.02Q102.26-43.56 102.14-43.09Q102.02-42.63 101.79-42.16L101.79-42.16Q101.32-41.69 100.86-41.35Q100.39-41.00 100.16-40.53L100.16-40.53L100.16-39.83Q100.16-39.83 99.46-39.60L99.46-39.60Q98.53-37.97 97.95-36.45Q97.36-34.94 96.20-34.01L96.20-34.01Q95.97-33.77 96.08-33.43Q96.20-33.08 96.20-32.84L96.20-32.84Q95.97-32.61 95.38-32.38Q94.80-32.14 95.50-31.68L95.50-31.68Q97.83-34.94 100.04-38.55Q102.26-42.16 104.59-45.65L104.59-45.65Q105.05-45.65 105.05-46.12L105.05-46.12Q105.52-46.59 105.52-46.70Q105.52-46.82 105.75-47.05L105.75-47.05Q105.98-47.52 106.45-47.87Q106.91-48.22 107.15-48.68L107.15-48.68Q107.61-49.15 107.73-49.61Q107.85-50.08 108.31-50.55L108.31-50.55Q108.55-51.48 109.71-51.94L109.71-51.94L109.71-52.18Q109.71-52.41 109.94-52.64L109.94-52.64Q109.94-52.88 110.18-53.11L110.18-53.11Q110.41-54.04 110.87-54.16Q111.34-54.27 111.81-54.51L111.81-54.51Q111.81-54.74 111.69-55.20Q111.57-55.67 111.81-55.67L111.81-55.67Q112.27-56.14 113.44-57.07L113.44-57.07Q113.90-57.77 114.60-58.58Q115.30-59.40 115.30-59.86L115.30-59.86Q115.30-60.56 115.77-60.79Q116.23-61.03 116.70-61.26L116.70-61.26Q116.93-61.49 116.70-61.73Q116.47-61.96 116.70-62.43L116.70-62.43Q117.16-62.66 117.51-63.01Q117.86-63.36 118.33-63.82L118.33-63.82Q118.79-64.75 119.61-65.45Q120.42-66.15 120.89-66.62L120.89-66.62Q121.12-67.55 122.29-68.25L122.29-68.25Q122.75-68.71 122.87-69.30Q122.99-69.88 123.45-70.34L123.45-70.34Q123.69-70.81 124.04-71.04Q124.38-71.28 124.85-71.74L124.85-71.74Q125.55-72.67 126.13-73.37Q126.71-74.07 127.41-74.77L127.41-74.77Q128.11-75.70 129.04-76.40Q129.97-77.10 130.44-78.03L130.44-78.03Q130.91-78.50 130.91-78.73Q130.91-78.96 131.14-79.43L131.14-79.43Q132.30-80.59 133.12-81.06Q133.93-81.53 134.40-82.46L134.40-82.46Q134.63-82.46 135.10-82.92Q135.57-83.39 135.10-83.85L135.10-83.85Q134.40-83.16 133.70-82.46Q133.00-81.76 132.30-80.83ZM54.74-71.28L54.74-71.28Q54.97-71.74 54.74-72.91Q54.51-74.07 54.04-72.91L54.04-72.91Q53.81-71.51 54.16-71.04Q54.51-70.58 54.74-71.28ZM54.04-67.78L54.04-67.78Q54.51-68.25 54.16-68.83Q53.81-69.41 53.81-68.71L53.81-68.71Q53.57-68.25 53.81-67.55Q54.04-66.85 54.04-67.78ZM58.00-33.54L58.00-33.54Q58.00-32.84 57.88-32.26Q57.77-31.68 58.00-30.98L58.00-30.98Q58.23-28.42 58.47-26.55Q58.70-24.69 58.93-22.83L58.93-22.83Q58.93-22.59 59.16-22.59L59.16-22.59Q59.63-21.43 59.51-20.26Q59.40-19.10 60.56-18.40L60.56-18.40Q59.86-22.59 59.05-27.84Q58.23-33.08 58.00-37.27L58.00-37.27Q57.77-37.97 57.88-39.48Q58.00-41.00 57.30-39.83L57.30-39.83Q56.83-37.97 57.30-36.22Q57.77-34.47 58.00-33.54ZM93.64-29.12L93.64-29.12Q93.87-28.65 94.69-29.93Q95.50-31.21 94.57-30.98L94.57-30.98Q94.57-30.51 94.10-29.93Q93.64-29.35 93.64-29.12ZM72.67-29.35L72.67-29.35Q72.21-28.18 72.67-28.18Q73.14-28.18 72.67-29.35L72.67-29.35Q73.84-29.82 73.37-30.51L73.37-30.51Q72.91-30.51 72.91-30.05Q72.91-29.58 72.67-29.35ZM69.41-26.55L69.41-26.55Q69.65-27.02 69.30-27.60Q68.95-28.18 68.71-27.49L68.71-27.49Q68.71-27.02 68.95-26.32Q69.18-25.62 69.41-26.55ZM224.78-129.74L224.78-129.74Q225.24-129.51 224.89-129.39Q224.54-129.28 224.78-129.04L224.78-129.04Q222.91-124.15 220.58-119.96Q218.26-115.77 216.16-111.11L216.16-111.11Q215.69-110.41 215.23-109.59Q214.76-108.78 214.76-108.08L214.76-108.08Q214.76-107.61 214.53-107.38L214.53-107.38Q214.30-107.15 214.30-106.91L214.30-106.91Q214.30-106.68 214.06-106.68L214.06-106.68Q213.36-105.98 213.36-105.52L213.36-105.52Q213.36-105.52 213.36-105.05L213.36-105.05L213.36-104.82L212.67-104.82Q212.43-104.35 212.67-104.00Q212.90-103.65 212.67-103.65L212.67-103.65L212.20-103.65L212.20-102.49Q211.50-102.02 210.80-100.63Q210.10-99.23 209.40-98.06L209.40-98.06Q209.17-97.36 208.71-96.43Q208.24-95.50 208.24-95.04L208.24-95.04Q208.24-94.57 207.77-94.10Q207.31-93.64 207.07-92.94L207.07-92.94Q206.61-91.08 205.91-90.14L205.91-90.14Q205.91-89.91 205.79-89.91Q205.68-89.91 205.68-89.45L205.68-89.45L205.68-88.98Q205.44-88.51 205.09-88.40Q204.75-88.28 204.51-88.05L204.51-88.05Q204.51-87.81 204.63-87.47Q204.75-87.12 204.51-86.88L204.51-86.88L204.28-86.88L204.05-86.88Q204.05-86.88 204.05-86.42L204.05-86.42L204.05-85.95L203.58-85.95L203.58-85.02Q203.11-84.55 202.53-83.51Q201.95-82.46 201.48-81.29L201.48-81.29L201.48-80.59Q200.55-79.66 199.50-77.45Q198.46-75.24 197.99-73.37L197.99-73.37L197.52-71.28Q197.29-71.28 196.83-70.46Q196.36-69.65 196.13-68.71L196.13-68.71L196.13-68.25L196.13-67.78L195.43-67.78L195.43-67.32L195.43-66.62Q195.20-66.62 194.96-65.92L194.96-65.92Q194.73-65.45 194.73-64.99L194.73-64.99Q194.50-64.75 194.50-64.29L194.50-64.29L194.50-64.06Q193.80-64.06 193.80-64.06L193.80-64.06Q193.56-63.59 193.45-62.66Q193.33-61.73 192.87-61.26L192.87-61.26Q192.63-60.79 192.63-60.56L192.63-60.56Q192.63-60.33 192.40-60.10L192.40-60.10L192.40-59.86Q192.17-59.63 191.82-58.93Q191.47-58.23 191.47-57.07L191.47-57.07Q190.77-57.77 191.24-58.70Q191.70-59.63 191.93-60.33L191.93-60.33Q192.17-61.49 192.75-62.89Q193.33-64.29 193.80-65.92L193.80-65.92L193.80-66.62Q194.26-67.08 194.50-67.78L194.50-67.78L194.96-69.18Q195.20-69.65 195.78-70.58Q196.36-71.51 196.36-72.21L196.36-72.21Q196.83-73.37 197.18-74.19Q197.52-75.00 197.99-76.17L197.99-76.17Q199.85-81.06 201.83-85.72Q203.81-90.38 205.91-95.04L205.91-95.04Q210.57-104.35 215.11-112.97Q219.65-121.59 224.78-129.74Z" transform="translate(0 931.79) " fill="rgb(255, 255, 255)" stroke="rgb(255, 255, 255)" stroke-width="0.388" data-glyph-w="212.43216" data-glyph-h="229.90191" data-glyph-ascender="209.40407" data-glyph-descender="-20.49784"></path></g></svg></g>
        </g>
  </svg>